<?xml version="1.0" encoding="UTF-8"?> <!-- Generator: Adobe Illustrator 25.1.0, SVG Export Plug-In . SVG Version: 6.00 Build 0) --> <svg xmlns="http://www.w3.org/2000/svg" xmlns:xlink="http://www.w3.org/1999/xlink" version="1.1" id="Layer_1" x="0px" y="0px" viewBox="0 0 1274 317" style="enable-background:new 0 0 1274 317;" xml:space="preserve"> <style type="text/css"> .st0{fill:#FFFFFF;} .st1{fill-rule:evenodd;clip-rule:evenodd;fill:#FFFFFF;} </style> <g> <path class="st0" d="M534.5,69h41.1l-51.8,153.1h-41.1l-29-104.2l-29.5,104.2h-41.1L331.6,69h43l30.1,111.8L434.9,69H474 l30.6,111.8L534.5,69z"></path> <path class="st0" d="M623.8,55.4c3.9,3.9,5.8,8.8,5.8,15c0,6-1.9,10.9-5.8,14.9c-3.9,3.9-8.8,5.9-14.7,5.9c-6,0-10.9-2-14.7-5.9 c-3.9-3.9-5.8-8.9-5.8-14.9c0-6.1,1.9-11.1,5.8-15c3.9-3.9,8.8-5.8,14.7-5.8C615,49.6,619.9,51.5,623.8,55.4z M590,104h38.7v118.2 H590V104z"></path> <path class="st0" d="M659.5,60.1h38.9v162.1h-38.9V60.1z"></path> <path class="st0" d="M848.4,60.1v162.1h-38.9v-15.3c-4.1,5.5-9.1,9.7-15,12.6c-5.9,2.8-12.6,4.3-20,4.3c-10.9,0-20.5-2.5-28.8-7.6 c-8.3-5.1-14.7-12.3-19.3-21.5c-4.6-9.2-6.9-19.9-6.9-32c0-11.9,2.3-22.4,6.8-31.5c4.5-9,10.8-16,19-21c8.2-4.9,17.6-7.4,28.4-7.4 c7.6,0,14.4,1.5,20.4,4.4c6,2.9,11.2,7.1,15.4,12.4V60.1H848.4z M802.5,184.9c4.7-5.5,7-12.6,7-21.3c0-8.9-2.3-16-7-21.4 c-4.7-5.4-10.8-8.1-18.3-8.1c-7.6,0-13.7,2.7-18.5,8.2c-4.7,5.5-7.1,12.6-7.1,21.3c0,8.7,2.4,15.8,7.1,21.3 c4.7,5.5,10.9,8.2,18.5,8.2C791.8,193.1,797.9,190.4,802.5,184.9z"></path> <path class="st0" d="M879.2,69H1000v31.9h-80.8v28.6h73v31.7l-73,0.2v28.8h83v31.9h-123V69z"></path> <path class="st0" d="M1072.3,258.3c-7.6,5.3-17,8-28.2,8c-6.6,0-12.7-1-18.3-2.9c-5.7-2-11.2-5.1-16.6-9.3l16.2-26.9 c2.8,2.3,5.4,4,7.9,5c2.5,1,5.1,1.5,7.9,1.5c6.4,0,11.1-3,14.2-9l2.8-5.5L1009.1,104h40l28.2,76.9l25.1-76.9h38.7l-50.7,129.7 C1085.9,244.8,1079.8,253,1072.3,258.3z"></path> <path class="st0" d="M1246.8,119.7c10.3,11.4,15.5,26.9,15.5,46.7c0,3.1-0.1,5.4-0.2,7h-82.1c1.9,6.7,5.2,11.8,9.8,15.4 c4.7,3.6,10.3,5.4,17,5.4c5.1,0,10-1,14.7-3.1c4.7-2,9.1-5,13-9l20.3,20.3c-6.1,6.8-13.5,12.1-22.2,15.6 c-8.7,3.6-18.5,5.3-29.4,5.3c-12.7,0-23.7-2.5-33.2-7.4c-9.5-5-16.7-11.9-21.7-21c-5-9-7.5-19.5-7.5-31.5c0-12.1,2.5-22.7,7.6-32 c5.1-9.2,12.3-16.4,21.6-21.4c9.3-5,20.1-7.5,32.3-7.5C1221.7,102.7,1236.4,108.3,1246.8,119.7z M1224.5,152.7c0-6.8-2-12.3-6-16.5 c-4-4.2-9.3-6.2-15.8-6.2c-6.1,0-11.2,2-15.4,6.1c-4.2,4.1-6.9,9.6-8.2,16.6H1224.5z"></path> </g> <g> <g> <path class="st1" d="M283,118.7c5.4,45.9-14.2,62.5-27.2,83.2c1.4,3.1,30.4-9.2,41-20.1c14.6-15,18.7-34.4,14.1-57.8 c-0.8-3.6-1.7-7.2-2.8-10.8c-5.6-18.9-14.5-35.9-25.9-50.7c-5.1-6.3-10.7-12.5-16.7-18.4c-3.8-3.6-7.8-7-11.9-10.1 c21.7,73.2-25.8,59.2-5.5,166.9C255.6,193.2,284.3,167.8,283,118.7 M254.6,246.4c-37,27.6-61.2,19-85.6,18.1 c-2,2.7,23.1,21.7,37.9,25.4c20.3,5.1,39.2-1,57.1-16.7c2.7-2.5,5.4-5.1,8-7.8c13.5-14.3,23.8-30.5,30.9-47.7 c2.9-7.5,5.5-15.6,7.6-23.6c1.2-5.1,2.2-10.2,2.8-15.4c-52.6,55.4-64.2,7.2-147.3,78.7C176.3,259.9,212.7,272,254.6,246.4z M129.8,285.7c-42.5-18.3-47-43.5-58.5-65.1c-3.4-0.4-7.2,30.9-3.1,45.5c5.7,20.1,20.5,33.4,43,41.1c3.5,1.1,7.1,2.1,10.8,3 c19.1,4.6,38.3,5.4,56.8,2.9c8-1.2,16.2-3,24.3-5.2c5-1.5,9.9-3.2,14.7-5.2c-74.3-17.8-38.4-52-141.8-88.2 C78.9,224.6,86.6,262.2,129.8,285.7z M33.4,197.1C28,151.2,47.5,134.7,60.5,114c-1.4-3.1-30.4,9.2-41,20.1 C5,149,0.8,168.5,5.4,191.8c0.8,3.6,1.7,7.2,2.8,10.8c5.6,18.9,14.5,35.9,25.9,50.7c5.1,6.3,10.7,12.5,16.7,18.4 c3.8,3.6,7.8,7,11.9,10.1c-21.7-73.2,25.8-59.2,5.5-166.9C60.8,122.6,32.1,148.1,33.4,197.1z M61.8,69.4 c37-27.6,61.2-19,85.6-18.1c2-2.7-23.1-21.7-37.9-25.4c-20.3-5.1-39.2,1-57.1,16.7c-2.7,2.5-5.4,5.1-8,7.8 C30.9,64.7,20.6,80.9,13.5,98.1c-2.9,7.5-5.5,15.6-7.6,23.6c-1.2,5.1-2.2,10.2-2.8,15.4c52.6-55.4,64.2-7.2,147.3-78.7 C140.1,55.9,103.7,43.8,61.8,69.4z M186.7,30.2c42.4,18.3,47,43.5,58.5,65.1c3.4,0.4,7.3-30.9,3.1-45.5 c-5.7-20.1-20.5-33.4-43-41.2c-3.5-1.1-7.1-2.1-10.8-3c-19.1-4.6-38.3-5.4-56.8-2.9c-8,1.2-16.2,3-24.3,5.2 c-5,1.5-9.9,3.2-14.7,5.2c74.3,17.8,38.4,52,141.8,88.2C237.5,91.3,229.8,53.7,186.7,30.2z"></path> </g> <g> <g> <polygon class="st0" points="94.3,121.5 98.7,108.9 142.6,119 128.3,171.7 131.3,131.9 "></polygon> </g> <g> <polygon class="st0" points="222.1,121.5 217.8,108.9 173.9,119 188.1,171.7 185.1,131.9 "></polygon> </g> </g> <g> <polygon class="st0" points="188.1,171.7 181.3,163.9 158.2,163.9 135.1,163.9 128.3,171.7 158.2,191.7 "></polygon> </g> <g> <path class="st0" d="M185,212.1c-2.4-3.1-11-10.3-24.3-11.2c0-1.7-0.2-6.5,0-12c0.1-2.4,0.9-3.5,2.3-4.1h-9.6 c1.4,0.5,2.2,1.6,2.3,4.1c0.2,5.5,0.1,10.2,0,12c-13.4,0.8-21.9,8.1-24.4,11.2c-2.6,3.2-6.5-1.1-6.5-1.1s1.9,9.3,8.9,4.2 c7-5.2,14.1-10.5,24.3-10.5c10.1,0,17.4,5.3,24.4,10.5c7,5.2,8.9-4.2,8.9-4.2S187.6,215.3,185,212.1z"></path> <path class="st0" d="M186.4,217.8c-1.4,0-2.9-0.6-4.5-1.8c-6.5-4.8-13.9-10.3-23.8-10.3c-9.9,0-16.9,5.2-23.7,10.3 c-2.3,1.7-4.4,2.2-6.2,1.5c-3.3-1.3-4.4-6-4.4-6.2l-0.8-3.7l2.6,2.8c0.5,0.5,2.1,1.9,3.4,1.9c0,0,0,0,0.1,0c0.5,0,1-0.3,1.4-0.8 c2.8-3.6,11.5-10.4,24.2-11.5c0-2.3,0.1-6.4-0.1-11c-0.1-2.3-0.9-2.9-1.6-3.1l-5.1-2h20.6l-5.1,2c-0.7,0.3-1.5,0.8-1.6,3.1 c-0.2,4.6-0.1,8.8-0.1,11c12.7,1.1,21.2,8,24.1,11.5c0.4,0.5,0.9,0.8,1.4,0.8c0,0,0,0,0.1,0c1.3,0,2.9-1.4,3.4-1.9l2.6-2.8 l-0.8,3.7c0,0.2-1.1,5-4.4,6.2C187.6,217.7,187,217.8,186.4,217.8z M127.2,214c0.5,0.7,1.1,1.3,1.8,1.6c1.1,0.4,2.5,0,4.2-1.2 c7-5.3,14.3-10.7,24.9-10.7c10.6,0,18.3,5.7,25,10.7c1.6,1.2,3,1.6,4.2,1.2c0.7-0.3,1.3-0.9,1.8-1.6c-0.6,0.2-1.3,0.4-1.9,0.4 c-1.2,0-2.2-0.6-3-1.6l0,0c-2.7-3.4-11.1-10-23.5-10.8l-1-0.1l0-1c0-1.9-0.2-6.6,0-12c0-1.2,0.3-2.2,0.7-3h-4.3 c0.4,0.8,0.6,1.8,0.7,3c0.2,5.3,0.1,10.1,0,11.8l0,1l-1,0.2c-12.5,0.8-20.9,7.4-23.6,10.8c-0.8,1-1.8,1.6-3,1.6 C128.5,214.4,127.9,214.2,127.2,214z"></path> </g> </g> </svg> 